<svg width="328" height="37" viewBox="0 0 328 37" fill="none" xmlns="http://www.w3.org/2000/svg">
<mask id="mask0_42_13249" style="mask-type:alpha" maskUnits="userSpaceOnUse" x="0" y="0" width="328" height="37">
<rect width="327.844" height="36.8342" fill="#C4C4C4"/>
</mask>
<g mask="url(#mask0_42_13249)">
<path d="M163.538 2.80515C235.412 2.80515 300.471 13.21 347.553 30.0239C371.095 38.4312 390.13 48.4368 403.274 59.5346C416.419 70.6335 423.647 82.801 423.647 95.5385C423.647 108.276 416.419 120.444 403.274 131.542C390.13 142.64 371.095 152.646 347.553 161.053C300.471 177.867 235.412 188.272 163.538 188.272C91.6632 188.272 26.6032 177.867 -20.4789 161.053C-44.0209 152.646 -63.0546 142.64 -76.1987 131.542C-89.3439 120.444 -96.5727 108.276 -96.5727 95.5385C-96.5727 82.801 -89.3439 70.6335 -76.1987 59.5346C-63.0546 48.4368 -44.0208 38.4312 -20.4789 30.0239C26.6032 13.2099 91.6632 2.80515 163.538 2.80515Z" fill="url(#paint0_linear_42_13249)" fill-opacity="0.3" stroke="#61C3F2" stroke-width="0.489163"/>
</g>
<defs>
<linearGradient id="paint0_linear_42_13249" x1="163.538" y1="2.561" x2="163.538" y2="28.5963" gradientUnits="userSpaceOnUse">
<stop stop-color="#61C3F2" stop-opacity="0.26"/>
<stop offset="1" stop-color="#61C3F2" stop-opacity="0"/>
</linearGradient>
</defs>
</svg>
