<svg width="18" height="13" viewBox="0 0 18 13" fill="none" xmlns="http://www.w3.org/2000/svg">
<path d="M3.69922e-05 6.14517C1.65622e-05 6.69747 0.447738 7.14521 1.00004 7.14521H2.06254C2.61481 7.14521 3.06251 6.69751 3.06254 6.14524L3.06254 5.97538C3.06256 5.42308 2.61484 4.97534 2.06254 4.97534H1.00004C0.447772 4.97534 6.37046e-05 5.42304 4.32756e-05 5.97531L3.69922e-05 6.14517ZM8.02651e-05 11.1425C8.02651e-05 11.6948 0.447795 12.1425 1.00008 12.1425H2.06258C2.61486 12.1425 3.06258 11.6948 3.06258 11.1425V10.863C3.06258 10.3107 2.61486 9.86302 2.06258 9.86302H1.00008C0.447795 9.86302 8.02651e-05 10.3107 8.02651e-05 10.863V11.1425ZM8.02651e-05 1.0822C8.02651e-05 1.63448 0.447796 2.0822 1.00008 2.0822H2.06258C2.61486 2.0822 3.06258 1.63448 3.06258 1.0822V1C3.06258 0.447715 2.61486 3.34439e-07 2.06258 3.34439e-07H1.00008C0.447795 3.34439e-07 8.02651e-05 0.447716 8.02651e-05 1V1.0822ZM4.59281 6.14517C4.59279 6.69747 5.04051 7.14521 5.59281 7.14521H16.5928C17.1451 7.14521 17.5928 6.69751 17.5928 6.14524L17.5928 5.97538C17.5928 5.42308 17.1451 4.97534 16.5928 4.97534H5.59282C5.04055 4.97534 4.59284 5.42304 4.59282 5.97531L4.59281 6.14517ZM4.59285 11.1425C4.59285 11.6948 5.04057 12.1425 5.59285 12.1425H16.5929C17.1451 12.1425 17.5928 11.6948 17.5929 11.1425L17.5929 10.863C17.5929 10.3107 17.1451 9.86302 16.5929 9.86302H5.59285C5.04057 9.86302 4.59285 10.3107 4.59285 10.863V11.1425ZM5.59285 3.34439e-07C5.04057 3.34439e-07 4.59285 0.447716 4.59285 1L4.59285 1.0822C4.59285 1.63448 5.04057 2.0822 5.59285 2.0822H16.5929C17.1451 2.0822 17.5929 1.63448 17.5929 1.0822L17.5929 1C17.5929 0.447717 17.1451 3.34439e-07 16.5929 3.34439e-07H5.59285Z" fill="white"/>
</svg>
